<svg width="21" height="20" viewBox="0 0 21 20" fill="none" xmlns="http://www.w3.org/2000/svg">
<g id="Elements/Star" opacity="0.8">
<g id="Fill 1 Copy 7">
<mask id="path-1-inside-1_9728_1540" fill="white">
<path fill-rule="evenodd" clip-rule="evenodd" d="M7.32277 5.00151C8.12193 3.19417 9.64175 0.000488281 10.4028 0.000488281C11.508 -0.000601462 13.9289 6.19677 13.9289 6.19677C13.9289 6.19677 16.1701 6.39183 17.9814 6.59126C18.943 6.69696 20.66 6.85824 20.7674 7.38677C20.7905 7.50119 20.6523 7.96869 20.4012 8.29453C19.3377 9.6785 16.5779 12.6437 16.5779 12.6437C16.5779 12.6437 16.7292 14.0604 16.8641 15.61C16.9507 16.6125 17.1843 18.6438 17.0998 19.0067C17.0077 19.4066 16.8422 19.5156 16.67 19.5788C16.2205 19.7423 15.1767 19.107 13.9574 18.525C12.2963 17.7306 10.4302 16.8817 10.4302 16.8817C10.4302 16.8817 9.1989 17.5236 7.73954 18.1502C6.1804 18.8193 4.60153 19.9221 3.94257 19.5341C3.53141 19.2911 3.83622 17.3972 3.9941 15.7113C4.14212 14.1214 4.27041 12.6688 4.27041 12.6688C4.27041 12.6688 3.35598 11.5986 2.29133 10.4544C1.14117 9.21754 -0.261176 7.8826 0.0425378 7.39222C0.271694 7.02171 1.3177 6.82337 3.07419 6.60651C4.94033 6.37549 6.80428 6.21203 6.80428 6.21203C6.80428 6.21203 7.00741 5.71471 7.32277 5.00151Z"/>
</mask>
<path fill-rule="evenodd" clip-rule="evenodd" d="M7.32277 5.00151C8.12193 3.19417 9.64175 0.000488281 10.4028 0.000488281C11.508 -0.000601462 13.9289 6.19677 13.9289 6.19677C13.9289 6.19677 16.1701 6.39183 17.9814 6.59126C18.943 6.69696 20.66 6.85824 20.7674 7.38677C20.7905 7.50119 20.6523 7.96869 20.4012 8.29453C19.3377 9.6785 16.5779 12.6437 16.5779 12.6437C16.5779 12.6437 16.7292 14.0604 16.8641 15.61C16.9507 16.6125 17.1843 18.6438 17.0998 19.0067C17.0077 19.4066 16.8422 19.5156 16.67 19.5788C16.2205 19.7423 15.1767 19.107 13.9574 18.525C12.2963 17.7306 10.4302 16.8817 10.4302 16.8817C10.4302 16.8817 9.1989 17.5236 7.73954 18.1502C6.1804 18.8193 4.60153 19.9221 3.94257 19.5341C3.53141 19.2911 3.83622 17.3972 3.9941 15.7113C4.14212 14.1214 4.27041 12.6688 4.27041 12.6688C4.27041 12.6688 3.35598 11.5986 2.29133 10.4544C1.14117 9.21754 -0.261176 7.8826 0.0425378 7.39222C0.271694 7.02171 1.3177 6.82337 3.07419 6.60651C4.94033 6.37549 6.80428 6.21203 6.80428 6.21203C6.80428 6.21203 7.00741 5.71471 7.32277 5.00151Z" stroke="#3A4562" stroke-width="4" mask="url(#path-1-inside-1_9728_1540)"/>
</g>
</g>
</svg>
