<svg width="18" height="20" viewBox="0 0 18 20" fill="none" xmlns="http://www.w3.org/2000/svg">
<path opacity="0.8" fill-rule="evenodd" clip-rule="evenodd" d="M13.04 14.9096L5.91 10.743C5.96 10.512 6 10.2811 6 10.0402C6 9.7992 5.96 9.56827 5.91 9.33735L12.96 5.21084C13.5 5.71285 14.21 6.0241 15 6.0241C16.66 6.0241 18 4.67871 18 3.01205C18 1.34538 16.66 0 15 0C13.34 0 12 1.34538 12 3.01205C12 3.25301 12.04 3.48394 12.09 3.71486L5.04 7.84137C4.5 7.33936 3.79 7.02811 3 7.02811C1.34 7.02811 0 8.37349 0 10.0402C0 11.7068 1.34 13.0522 3 13.0522C3.79 13.0522 4.5 12.741 5.04 12.239L12.16 16.4157C12.11 16.6265 12.08 16.8474 12.08 17.0683C12.08 18.6847 13.39 20 15 20C16.61 20 17.92 18.6847 17.92 17.0683C17.92 15.4518 16.61 14.1365 15 14.1365C14.24 14.1365 13.56 14.4378 13.04 14.9096Z" fill="currentColor"/>
</svg>
