<svg aria-hidden="true" style="position:absolute;width:0;height:0" xmlns="http://www.w3.org/2000/svg" overflow="hidden">
    <defs>
        <symbol id="icon-star" viewBox="0 0 19 18" fill="none" xmlns="http://www.w3.org/2000/svg">
            <path id="Fill 1 Copy 7" fill-rule="evenodd" clip-rule="evenodd" d="M6.69871 4.58966C7.42979 2.93116 8.82013 0.000488281 9.51634 0.000488281C10.5274 -0.000511719 12.7421 5.68649 12.7421 5.68649C12.7421 5.68649 14.7923 5.86549 16.4493 6.04849C17.3289 6.14549 18.8997 6.29349 18.998 6.77849C19.019 6.88349 18.8927 7.31249 18.663 7.61149C17.69 8.88149 15.1654 11.6025 15.1654 11.6025C15.1654 11.6025 15.3038 12.9025 15.4272 14.3245C15.5064 15.2445 15.7201 17.1085 15.6428 17.4415C15.5586 17.8085 15.4071 17.9085 15.2497 17.9665C14.8384 18.1165 13.8835 17.5335 12.7682 16.9995C11.2486 16.2705 9.54141 15.4915 9.54141 15.4915C9.54141 15.4915 8.41501 16.0805 7.07998 16.6555C5.65367 17.2695 4.20931 18.2815 3.60649 17.9255C3.23035 17.7025 3.50919 15.9645 3.65363 14.4175C3.78904 12.9585 3.90639 11.6255 3.90639 11.6255C3.90639 11.6255 3.06987 10.6435 2.09592 9.59349C1.04375 8.45849 -0.239128 7.23349 0.0387113 6.78349C0.248344 6.44349 1.20523 6.26149 2.81209 6.06249C4.51924 5.85049 6.22439 5.70049 6.22439 5.70049C6.22439 5.70049 6.41022 5.24412 6.69871 4.58966Z" fill="currentColor"/>
        </symbol>
        <symbol id="icon-empty-star" viewBox="0 0 21 20" fill="none" xmlns="http://www.w3.org/2000/svg">
            <mask id="path-1-inside-1_9728_1540" fill="white">
            <path fill-rule="evenodd" clip-rule="evenodd" d="M7.32277 5.00151C8.12193 3.19417 9.64175 0.000488281 10.4028 0.000488281C11.508 -0.000601462 13.9289 6.19677 13.9289 6.19677C13.9289 6.19677 16.1701 6.39183 17.9814 6.59126C18.943 6.69696 20.66 6.85824 20.7674 7.38677C20.7905 7.50119 20.6523 7.96869 20.4012 8.29453C19.3377 9.6785 16.5779 12.6437 16.5779 12.6437C16.5779 12.6437 16.7292 14.0604 16.8641 15.61C16.9507 16.6125 17.1843 18.6438 17.0998 19.0067C17.0077 19.4066 16.8422 19.5156 16.67 19.5788C16.2205 19.7423 15.1767 19.107 13.9574 18.525C12.2963 17.7306 10.4302 16.8817 10.4302 16.8817C10.4302 16.8817 9.1989 17.5236 7.73954 18.1502C6.1804 18.8193 4.60153 19.9221 3.94257 19.5341C3.53141 19.2911 3.83622 17.3972 3.9941 15.7113C4.14212 14.1214 4.27041 12.6688 4.27041 12.6688C4.27041 12.6688 3.35598 11.5986 2.29133 10.4544C1.14117 9.21754 -0.261176 7.8826 0.0425378 7.39222C0.271694 7.02171 1.3177 6.82337 3.07419 6.60651C4.94033 6.37549 6.80428 6.21203 6.80428 6.21203C6.80428 6.21203 7.00741 5.71471 7.32277 5.00151Z"/>
            </mask>
            <path fill-rule="evenodd" clip-rule="evenodd" d="M7.32277 5.00151C8.12193 3.19417 9.64175 0.000488281 10.4028 0.000488281C11.508 -0.000601462 13.9289 6.19677 13.9289 6.19677C13.9289 6.19677 16.1701 6.39183 17.9814 6.59126C18.943 6.69696 20.66 6.85824 20.7674 7.38677C20.7905 7.50119 20.6523 7.96869 20.4012 8.29453C19.3377 9.6785 16.5779 12.6437 16.5779 12.6437C16.5779 12.6437 16.7292 14.0604 16.8641 15.61C16.9507 16.6125 17.1843 18.6438 17.0998 19.0067C17.0077 19.4066 16.8422 19.5156 16.67 19.5788C16.2205 19.7423 15.1767 19.107 13.9574 18.525C12.2963 17.7306 10.4302 16.8817 10.4302 16.8817C10.4302 16.8817 9.1989 17.5236 7.73954 18.1502C6.1804 18.8193 4.60153 19.9221 3.94257 19.5341C3.53141 19.2911 3.83622 17.3972 3.9941 15.7113C4.14212 14.1214 4.27041 12.6688 4.27041 12.6688C4.27041 12.6688 3.35598 11.5986 2.29133 10.4544C1.14117 9.21754 -0.261176 7.8826 0.0425378 7.39222C0.271694 7.02171 1.3177 6.82337 3.07419 6.60651C4.94033 6.37549 6.80428 6.21203 6.80428 6.21203C6.80428 6.21203 7.00741 5.71471 7.32277 5.00151Z" stroke="currentColor" stroke-width="2" mask="url(#path-1-inside-1_9728_1540)"/>
        </symbol>  
    </defs>
</svg>